<svg width="43" height="44" viewBox="0 0 43 44" fill="none" xmlns="http://www.w3.org/2000/svg">
<path d="M21.5 43.48C33.3741 43.48 43 33.8541 43 21.98C43 10.1059 33.3741 0.47998 21.5 0.47998C9.62588 0.47998 0 10.1059 0 21.98C0 33.8541 9.62588 43.48 21.5 43.48Z" fill="#22AD01"/>
<path fill-rule="evenodd" clip-rule="evenodd" d="M31.707 29.0023H27.5015V22.9212C27.5015 21.3294 26.8436 20.2428 25.397 20.2428C24.2905 20.2428 23.6752 20.9761 23.3888 21.6828C23.2814 21.9365 23.2981 22.2898 23.2981 22.6432V29.0023H19.1317C19.1317 29.0023 19.1854 18.2302 19.1317 17.251H23.2981V19.0953C23.5443 18.2889 24.8756 17.138 27.0002 17.138C29.6361 17.138 31.707 18.8283 31.707 22.4681V29.0023ZM14.9195 15.781H14.8927C13.5501 15.781 12.6797 14.8827 12.6797 13.744C12.6797 12.5831 13.5758 11.7036 14.9453 11.7036C16.3135 11.7036 17.1549 12.5809 17.1817 13.7407C17.1817 14.8794 16.3135 15.781 14.9195 15.781ZM13.1602 17.2505H16.869V29.0019H13.1602V17.2505Z" fill="white"/>
</svg>
