<svg width="43" height="44" viewBox="0 0 43 44" fill="none" xmlns="http://www.w3.org/2000/svg">
<mask id="mask0_1_521" style="mask-type:luminance" maskUnits="userSpaceOnUse" x="0" y="0" width="43" height="44">
<path d="M43 0.47998H0V43.48H43V0.47998Z" fill="white"/>
</mask>
<g mask="url(#mask0_1_521)">
<path d="M21.5 43.48C33.3741 43.48 43 33.8541 43 21.98C43 10.1059 33.3741 0.47998 21.5 0.47998C9.62588 0.47998 0 10.1059 0 21.98C0 33.8541 9.62588 43.48 21.5 43.48Z" fill="#22AD01"/>
<path fill-rule="evenodd" clip-rule="evenodd" d="M32 15.4925C31.2284 15.8338 30.3976 16.0647 29.5261 16.1678C30.4161 15.6374 31.099 14.7963 31.4207 13.7943C30.5874 14.2855 29.6667 14.6428 28.683 14.8344C27.8991 14.0006 26.7787 13.48 25.5387 13.48C23.1609 13.48 21.2319 15.4016 21.2319 17.7714C21.2319 18.1079 21.2689 18.4345 21.3428 18.7488C17.7621 18.5696 14.5881 16.8628 12.4619 14.2634C12.0909 14.8994 11.8789 15.6374 11.8789 16.4232C11.8789 17.9114 12.6394 19.2253 13.7956 19.9951C13.0905 19.9743 12.4249 19.779 11.8431 19.4598V19.5126C11.8431 21.5926 13.3284 23.3276 15.3006 23.7205C14.9394 23.8212 14.5585 23.8715 14.1653 23.8715C13.888 23.8715 13.6168 23.8458 13.3543 23.7954C13.9028 25.4997 15.4929 26.7411 17.3788 26.7743C15.9046 27.926 14.0458 28.6124 12.028 28.6124C11.6804 28.6124 11.3365 28.5927 11 28.5535C12.9068 29.7691 15.1724 30.48 17.6043 30.48C25.53 30.48 29.8627 23.9415 29.8627 18.27C29.8627 18.0833 29.859 17.8967 29.8516 17.7137C30.6934 17.1084 31.4244 16.3532 32 15.4925Z" fill="white"/>
</g>
</svg>
